<svg width="370" height="150" viewBox="0 0 370 150" fill="none" xmlns="http://www.w3.org/2000/svg">
<g id="munch-madness-logo-k">
<g id="Munch">
<path d="M10.3452 71.1943C10.2684 71.6803 9.84951 72.0382 9.3575 72.0382H1.17106C0.556316 72.0382 0.0871274 71.4888 0.183406 70.8816L8.79158 16.5958C8.8686 16.1101 9.28741 15.7524 9.77924 15.7524H20.0245C20.5283 15.7524 20.9535 16.1273 21.0166 16.6271L25.281 50.3871C25.4079 51.3916 26.776 51.593 27.1871 50.6677L42.4329 16.3465C42.5934 15.9853 42.9515 15.7524 43.3468 15.7524H53.5065C54.1213 15.7524 54.5905 16.3019 54.4942 16.9091L45.886 71.1948C45.809 71.6806 45.3902 72.0382 44.8984 72.0382H36.7109C36.0964 72.0382 35.6272 71.4891 35.7232 70.8821L38.2957 54.6069C38.4783 53.452 36.8699 52.9759 36.3944 54.044L28.6482 71.4449C28.4876 71.8057 28.1296 72.0382 27.7347 72.0382H18.2474C17.7446 72.0382 17.32 71.6649 17.2557 71.1662L15.0435 54.0221C14.8956 52.876 13.2444 52.8525 13.064 53.994L10.3452 71.1943Z" fill="black"/>
<path d="M108.316 72.0382C107.846 72.0382 107.439 71.7106 107.339 71.2511L103.336 52.8729C103.1 51.7922 101.544 51.8369 101.371 52.9293L98.4773 71.1947C98.4003 71.6805 97.9815 72.0382 97.4896 72.0382H88.0968C87.482 72.0382 87.0128 71.4888 87.1091 70.8816L95.7173 16.5958C95.7943 16.1101 96.2131 15.7524 96.7049 15.7524H106.703C107.174 15.7524 107.581 16.0812 107.68 16.5417L112.817 40.3617C113.05 41.4437 114.608 41.4011 114.782 40.3079L118.553 16.5954C118.63 16.1098 119.049 15.7524 119.54 15.7524H128.934C129.549 15.7524 130.018 16.3019 129.922 16.9091L121.313 71.1948C121.236 71.6806 120.818 72.0382 120.326 72.0382H108.316Z" fill="black"/>
<path d="M160.183 1.68858C162.22 2.8679 163.801 4.47606 164.927 6.51307C166.106 8.55008 166.696 10.8015 166.696 13.2674C166.696 13.9294 166.677 14.4895 166.64 14.9476C166.602 15.4227 166.192 15.76 165.715 15.76H155.767C155.408 15.76 155.117 15.3959 155.117 15.0363V15.0363C155.117 13.9642 154.769 13.1065 154.072 12.4633C153.375 11.7664 152.49 11.418 151.418 11.418C150.239 11.418 149.167 11.8468 148.202 12.7045C147.237 13.5622 146.647 14.5807 146.433 15.76L139.666 56.6024C139.657 56.6542 139.644 56.705 139.631 56.756C139.592 56.9134 139.572 57.1294 139.572 57.4039C139.572 58.4224 139.921 59.2801 140.618 59.977C141.315 60.6203 142.199 60.9419 143.271 60.9419C144.45 60.9419 145.523 60.5398 146.487 59.7358C147.225 59.0799 147.744 58.33 148.043 57.4861C148.204 57.0306 148.608 56.6802 149.091 56.6802H158.512C159.124 56.6802 159.594 57.2255 159.462 57.8227C158.928 60.2289 157.873 62.4747 156.297 64.5603C154.528 66.9725 152.304 68.9023 149.623 70.3496C146.997 71.7434 144.263 72.4403 141.422 72.4403C138.849 72.4403 136.544 71.8774 134.507 70.7517C132.47 69.5724 130.861 67.9642 129.682 65.9272C128.556 63.8902 127.994 61.6388 127.994 59.1729C127.994 58.0472 128.047 57.2163 128.154 56.6802L135.015 15.76C135.444 12.9189 136.543 10.2923 138.312 7.88001C140.134 5.46776 142.359 3.56477 144.986 2.17102C147.666 0.723675 150.427 0 153.268 0C155.841 0 158.146 0.562858 160.183 1.68858Z" fill="black"/>
<path d="M170.94 43.1543C170.461 43.1543 170.048 43.4949 169.958 43.9659L168.351 52.3427C168.261 52.8137 167.849 53.1543 167.369 53.1543H157.967C157.346 53.1543 156.875 52.5945 156.982 51.9828L162.552 19.9828C162.635 19.5039 163.051 19.1543 163.537 19.1543H172.921C173.543 19.1543 174.014 19.7163 173.905 20.3289L172.091 30.5617C171.982 31.1743 172.454 31.7363 173.076 31.7363H181.809C182.298 31.7363 182.716 31.382 182.796 30.8991L185.157 16.5899C185.236 16.107 185.654 15.7527 186.143 15.7527H195.622C196.237 15.7527 196.706 16.3021 196.61 16.9093L188.002 71.1951C187.924 71.6808 187.506 72.0385 187.014 72.0385H177.615C177.002 72.0385 176.534 71.4923 176.627 70.8866L180.711 44.3062C180.805 43.7005 180.336 43.1543 179.723 43.1543H170.94Z" fill="black"/>
</g>
<g id="Madness">
<path d="M37.461 147.81C37.3842 148.296 36.9653 148.654 36.4733 148.654H25.3976C24.7829 148.654 24.3137 148.105 24.41 147.498L35.5434 77.2872C35.6204 76.8015 36.0392 76.4438 36.531 76.4438H50.166C50.6698 76.4438 51.095 76.8187 51.1581 77.3185L56.7875 121.885C56.9144 122.889 58.2825 123.091 58.6935 122.165L78.7395 77.0379C78.9 76.6767 79.2582 76.4438 79.6534 76.4438H93.2029C93.8176 76.4438 94.2868 76.9933 94.1905 77.6005L83.0571 147.811C82.9801 148.297 82.5613 148.654 82.0695 148.654H70.9928C70.3783 148.654 69.9091 148.105 70.0051 147.498L73.6924 124.171C73.8749 123.016 72.2665 122.54 71.7911 123.608L60.9054 148.061C60.7448 148.422 60.3868 148.654 59.9919 148.654H47.3879C46.8851 148.654 46.4605 148.281 46.3961 147.782L43.274 123.586C43.1261 122.44 41.4749 122.416 41.2945 123.558L37.461 147.81Z" fill="black"/>
<path d="M131.896 76.4438C132.413 76.4438 132.845 76.8387 132.892 77.3542L139.211 147.565C139.263 148.15 138.802 148.654 138.215 148.654H125.162C124.644 148.654 124.212 148.259 124.166 147.744L123.504 140.384C123.458 139.868 123.026 139.473 122.508 139.473H107.069C106.665 139.473 106.3 139.716 106.145 140.089L102.841 148.038C102.686 148.411 102.321 148.654 101.917 148.654H89.0104C88.3004 148.654 87.8165 147.935 88.0843 147.277L116.67 77.0668C116.823 76.6901 117.189 76.4438 117.596 76.4438H131.896ZM120.989 124.825C121.576 124.825 122.037 124.321 121.985 123.736L120.696 109.264C120.603 108.217 119.166 108.004 118.773 108.979L112.939 123.451C112.674 124.108 113.157 124.825 113.866 124.825H120.989Z" fill="black"/>
<path d="M219.004 148.654C218.533 148.654 218.127 148.327 218.027 147.867L212.522 122.596C212.287 121.515 210.73 121.56 210.557 122.652L206.572 147.811C206.495 148.297 206.076 148.654 205.584 148.654H192.961C192.346 148.654 191.877 148.105 191.973 147.498L203.106 77.2872C203.183 76.8015 203.602 76.4438 204.094 76.4438H217.391C217.862 76.4438 218.269 76.7726 218.368 77.2331L225.325 109.493C225.558 110.575 227.116 110.533 227.29 109.439L232.403 77.2868C232.48 76.8012 232.899 76.4438 233.391 76.4438H246.014C246.629 76.4438 247.098 76.9933 247.002 77.6005L235.869 147.811C235.792 148.297 235.373 148.654 234.881 148.654H219.004Z" fill="black"/>
<path d="M277.588 134.315C278.201 134.315 278.669 134.862 278.576 135.467L276.614 148.219C276.539 148.707 276.12 149.067 275.626 149.067H242.58C241.966 149.067 241.497 148.518 241.592 147.911L252.728 77.2881C252.804 76.8019 253.223 76.4438 253.715 76.4438H286.768C287.381 76.4438 287.85 76.9909 287.756 77.597L285.796 90.2454C285.721 90.7327 285.301 91.0923 284.808 91.0923H266.097C265.604 91.0923 265.184 91.4521 265.109 91.9397L263.251 103.969C263.158 104.575 263.626 105.122 264.24 105.122H275.721C276.338 105.122 276.807 105.673 276.709 106.282L274.66 118.93C274.582 119.414 274.163 119.77 273.673 119.77H261.557C261.064 119.77 260.645 120.129 260.569 120.616L258.611 133.161C258.517 133.768 258.986 134.315 259.599 134.315H277.588Z" fill="black"/>
<path d="M306.762 103.265C309.994 104.228 312.573 105.225 314.498 106.256C316.424 107.288 318.04 108.904 319.347 111.105C320.86 113.581 321.616 116.332 321.616 119.358C321.616 119.908 321.547 120.802 321.41 122.04L320.069 130.292C319.519 133.662 318.178 136.757 316.046 139.576C313.914 142.327 311.266 144.494 308.103 146.075C305.008 147.657 301.776 148.448 298.406 148.448C295.38 148.448 292.629 147.795 290.153 146.488C287.677 145.113 285.717 143.256 284.273 140.918C282.898 138.579 282.21 135.966 282.21 133.078C282.21 132.459 282.279 131.53 282.416 130.292L283.725 122.159C283.803 121.674 284.221 121.318 284.712 121.318H297.348C297.959 121.318 298.428 121.861 298.337 122.465L297.168 130.292C296.962 131.324 297.237 132.184 297.993 132.871C298.75 133.49 299.644 133.8 300.675 133.8C301.776 133.8 302.773 133.49 303.667 132.871C304.63 132.184 305.214 131.324 305.42 130.292L306.647 122.113C306.655 122.064 306.658 122.015 306.658 121.965V121.421C306.658 120.939 306.555 120.492 306.349 120.08C306.005 119.529 305.214 119.014 303.976 118.532C302.738 118.051 301.5 117.638 300.263 117.294C299.093 116.882 298.268 116.607 297.787 116.469C294.073 115.369 291.288 113.202 289.431 109.97C287.918 107.494 287.161 104.915 287.161 102.233C287.161 101.202 287.368 99.4481 287.78 96.9723L288.09 94.7028C288.64 91.333 289.981 88.2726 292.113 85.5217C294.245 82.7021 296.858 80.5014 299.953 78.9196C303.117 77.2691 306.383 76.4438 309.753 76.4438C312.779 76.4438 315.53 77.1316 318.006 78.507C320.481 79.8137 322.407 81.6705 323.783 84.0775C325.227 86.4158 325.949 89.0635 325.949 92.0207C325.949 92.5709 325.88 93.4649 325.743 94.7028L324.641 101.497C324.562 101.981 324.144 102.336 323.654 102.336H311.016C310.405 102.336 309.937 101.794 310.027 101.189L310.991 94.7028C311.197 93.6024 310.922 92.7428 310.166 92.1238C309.409 91.4361 308.515 91.0923 307.484 91.0923C305.627 91.0923 304.389 91.6081 303.77 92.6396C303.151 93.6712 302.704 95.1498 302.429 97.0754L302.016 99.1386C301.947 99.9638 302.119 100.686 302.532 101.305C302.945 101.855 303.529 102.268 304.286 102.543C304.836 102.749 305.661 102.99 306.762 103.265Z" fill="black"/>
<path d="M349.878 103.265C353.111 104.228 355.69 105.225 357.615 106.256C359.541 107.288 361.157 108.904 362.464 111.105C363.977 113.581 364.733 116.332 364.733 119.358C364.733 119.908 364.664 120.802 364.527 122.04L363.186 130.292C362.635 133.662 361.294 136.757 359.163 139.576C357.031 142.327 354.383 144.494 351.219 146.075C348.125 147.657 344.892 148.448 341.522 148.448C338.497 148.448 335.746 147.795 333.27 146.488C330.794 145.113 328.834 143.256 327.39 140.918C326.014 138.579 325.327 135.966 325.327 133.078C325.327 132.459 325.395 131.53 325.533 130.292L326.842 122.159C326.92 121.674 327.338 121.318 327.829 121.318H340.465C341.076 121.318 341.544 121.861 341.454 122.465L340.285 130.292C340.078 131.324 340.353 132.184 341.11 132.871C341.866 133.49 342.76 133.8 343.792 133.8C344.892 133.8 345.89 133.49 346.784 132.871C347.746 132.184 348.331 131.324 348.537 130.292L349.764 122.113C349.771 122.064 349.775 122.015 349.775 121.965V121.421C349.775 120.939 349.672 120.492 349.466 120.08C349.122 119.529 348.331 119.014 347.093 118.532C345.855 118.051 344.617 117.638 343.379 117.294C342.21 116.882 341.385 116.607 340.904 116.469C337.19 115.369 334.405 113.202 332.548 109.97C331.035 107.494 330.278 104.915 330.278 102.233C330.278 101.202 330.485 99.4481 330.897 96.9723L331.207 94.7028C331.757 91.333 333.098 88.2726 335.23 85.5217C337.362 82.7021 339.975 80.5014 343.07 78.9196C346.233 77.2691 349.5 76.4438 352.87 76.4438C355.896 76.4438 358.647 77.1316 361.122 78.507C363.598 79.8137 365.524 81.6705 366.899 84.0775C368.344 86.4158 369.066 89.0635 369.066 92.0207C369.066 92.5709 368.997 93.4649 368.859 94.7028L367.758 101.497C367.679 101.981 367.261 102.336 366.771 102.336H354.133C353.522 102.336 353.054 101.794 353.144 101.189L354.108 94.7028C354.314 93.6024 354.039 92.7428 353.283 92.1238C352.526 91.4361 351.632 91.0923 350.6 91.0923C348.744 91.0923 347.506 91.6081 346.887 92.6396C346.268 93.6712 345.821 95.1498 345.546 97.0754L345.133 99.1386C345.064 99.9638 345.236 100.686 345.649 101.305C346.061 101.855 346.646 102.268 347.402 102.543C347.953 102.749 348.778 102.99 349.878 103.265Z" fill="black"/>
</g>
<path id="Subtract" fill-rule="evenodd" clip-rule="evenodd" d="M167.56 149.067C171.067 148.792 174.368 147.692 177.463 145.766C180.558 143.84 183.137 141.399 185.2 138.442C187.332 135.416 188.673 132.184 189.223 128.745L194.278 96.8692C194.415 96.1127 194.484 95.0467 194.484 93.6713C194.484 90.5078 193.727 87.6194 192.215 85.006C190.77 82.3927 188.742 80.3295 186.128 78.8165C183.515 77.3036 180.558 76.5471 177.257 76.5471L155.111 76.4478C154.617 76.4455 154.196 76.8042 154.119 77.292L142.984 147.911C142.888 148.518 143.358 149.067 143.972 149.067H167.56ZM168.706 134.393C168.41 136.329 166.6 137.263 165.118 137.036C163.402 136.774 162.222 135.164 162.486 133.442L162.86 130.987C164.727 118.737 168.936 91.1231 169.368 88.4254C169.531 87.3992 170.385 86.7699 171.311 86.9115C174.457 87.3923 176.953 101.934 176.557 116.377C176.541 116.974 176.001 117.419 175.41 117.328C174.207 117.142 173.126 116.978 172.392 116.867C171.847 116.784 171.34 117.159 171.256 117.704L168.706 134.393Z" fill="black"/>
<path id="Subtract_2" fill-rule="evenodd" clip-rule="evenodd" d="M74.9342 44.2743C75.118 44.4651 75.3179 44.6726 75.5333 44.9017C76.6701 46.1141 77.318 47.8324 76.9068 49.4185C75.9029 53.3031 73.9004 60.4508 73.3522 62.4012C73.2707 62.6914 72.9869 62.87 72.6889 62.8244C72.3629 62.7746 72.139 62.4699 72.1888 62.1439L73.6158 52.8063C73.6958 52.2832 73.3365 51.7943 72.8134 51.7144C72.3043 51.6365 71.8247 51.9751 71.7276 52.4809L69.933 61.8304C69.8733 62.1411 69.5787 62.3491 69.266 62.3013C68.9513 62.2532 68.7319 61.9637 68.7707 61.6477L69.9271 52.2297C69.9913 51.7068 69.6282 51.2276 69.1074 51.148C68.591 51.069 68.1043 51.4115 68.0041 51.9242L66.1733 61.2981C66.1171 61.586 65.8438 61.7783 65.5538 61.734C65.2622 61.6894 65.0585 61.4218 65.0932 61.1289L66.2156 51.6406C66.2762 51.1287 65.92 50.6608 65.4104 50.583C64.8883 50.5032 64.4004 50.8617 64.3206 51.3838L62.8862 60.7699C62.8403 61.0702 62.5597 61.2764 62.2594 61.2305C61.9878 61.189 61.7885 60.9582 61.7928 60.6835C61.8236 58.7348 61.9485 51.2606 62.1142 47.2042C62.1824 45.5415 63.3686 44.072 64.8465 43.2517C65.1274 43.0957 65.3858 42.9564 65.623 42.8287C67.0458 42.062 67.7018 41.7085 67.8685 40.6178L71.6318 15.9937H59.9805C59.4883 15.9937 59.0693 16.3519 58.9927 16.8381L54.3012 46.6292L52.693 56.3586C52.5858 57.4307 52.5322 58.2348 52.5322 58.7709C52.5322 62.2016 53.5507 65.0963 55.5877 67.4549C56.8207 68.9559 58.3216 70.1084 60.0906 70.9125C61.8596 71.7166 63.8162 72.1186 65.9604 72.1186C68.1046 72.1186 70.1952 71.7166 72.2322 70.9125C74.3229 70.0548 76.199 68.9023 77.8608 67.4549C79.5226 66.0076 80.8895 64.3458 81.9616 62.4696C83.0874 60.5398 83.8378 58.5028 84.2131 56.3586L90.4625 16.9089C90.5587 16.3018 90.0895 15.7524 89.4748 15.7524H77.3762L73.4444 41.4793C73.2798 42.5565 73.8042 43.101 74.9342 44.2743Z" fill="black"/>
</g>
</svg>
